Coordinates
version=1
nRows=24
nColumns=24
inDegrees=yes

Units are S.I. units (second, meters, Newtons, ...)
Angles are in degrees.

endheader
time	pelvis_tilt	pelvis_list	pelvis_rotation	pelvis_tx	pelvis_ty	pelvis_tz	hip_flexion_r	hip_adduction_r	hip_rotation_r	knee_angle_r	ankle_angle_r	subtalar_angle_r	mtp_angle_r	hip_flexion_l	hip_adduction_l	hip_rotation_l	knee_angle_l	ankle_angle_l	subtalar_angle_l	mtp_angle_l	lumbar_extension	lumbar_bending	lumbar_rotation
      4.61500000	     37.00586504	      4.74981178	      3.93958941	     -0.19656294	      0.65114513	     -0.26983088	    -55.86657302	      2.72876226	    -10.09397677	    -12.58502863	     23.70804599	     12.28660628	      0.00000000	    -14.89964557	      4.56138663	     -5.32864092	     -2.17485800	      6.75348459	     14.10148505	      0.00000000	    -65.86127622	     -0.90754832	      3.10974097
      4.62000000	     37.11599360	      4.83678440	      3.67694671	     -0.18988926	      0.65094225	     -0.26992434	    -56.05909341	      2.36228921	    -10.02089604	    -13.65996080	     23.05875145	     12.41594895	      0.00000000	    -14.85096571	      4.74216514	     -5.24520521	     -3.33219983	      6.60005889	     14.16411119	      0.00000000	    -65.85539193	     -1.26866888	      3.14487105
      4.62500000	     37.31403060	      4.71427470	      3.15582526	     -0.18333560	      0.65094940	     -0.27010346	    -56.17360260	      1.86682202	     -9.63584462	    -14.95769486	     22.32249868	     12.59940099	      0.00000000	    -14.89990050	      4.81589570	     -5.19103846	     -4.54041338	      6.30164651	     13.57647685	      0.00000000	    -65.94478740	     -1.62938897	      3.55154607
      4.63000000	     37.47625075	      4.74522432	      2.82642346	     -0.17668074	      0.65093067	     -0.27027621	    -56.24975929	      1.43456422	     -9.59073157	    -16.29527884	     21.40473564	     12.80444129	      0.00000000	    -14.89520413	      4.97667466	     -5.09637582	     -5.86622786	      6.02094959	     13.24083425	      0.00000000	    -65.99749207	     -1.95889079	      3.64193714
      4.63500000	     37.64879547	      4.75490653	      2.46669563	     -0.17002864	      0.65095307	     -0.27046636	    -56.25772968	      0.97036773	     -9.55436537	    -17.74697576	     20.44917425	     13.01861012	      0.00000000	    -14.87242575	      5.13655775	     -4.78632405	     -7.31036903	      5.74962153	     12.57923371	      0.00000000	    -66.05035761	     -2.31082766	      3.84345439
      4.64000000	     37.80816135	      4.78575177	      2.16475365	     -0.16337297	      0.65100822	     -0.27072208	    -56.17984169	      0.51879608	     -9.61455790	    -19.31172091	     19.31647968	     13.23723057	      0.00000000	    -14.83422988	      5.31524234	     -4.45947979	     -8.80012225	      5.47949215	     11.86886319	      0.00000000	    -66.09625517	     -2.61872990	      3.96660721
      4.64500000	     37.96356710	      4.81298956	      1.88230421	     -0.15670817	      0.65111016	     -0.27100162	    -56.02606134	      0.06454042	     -9.74506775	    -20.96859926	     18.01867324	     13.45169268	      0.00000000	    -14.79702989	      5.49627609	     -4.07660221	    -10.32088098	      5.22678306	     11.07301156	      0.00000000	    -66.13484305	     -2.89749603	      4.06236021
      4.65000000	     38.10932115	      4.85020484	      1.63523487	     -0.15003201	      0.65123889	     -0.27134847	    -55.78923976	     -0.39333167	     -9.94953760	    -22.72384725	     16.55272136	     13.64220029	      0.00000000	    -14.76410360	      5.69517513	     -3.66694559	    -11.84724804	      5.04045863	     10.21221792	      0.00000000	    -66.16215916	     -3.14417191	      4.13162736
      4.65500000	     38.25848076	      4.87685267	      1.39744680	     -0.14336407	      0.65140808	     -0.27173794	    -55.48491556	     -0.86681438	    -10.22469110	    -24.55512450	     14.92111987	     13.79141652	      0.00000000	    -14.75477025	      5.89504322	     -3.23404238	    -13.35977240	      4.90808057	      9.31640204	      0.00000000	    -66.18760949	     -3.36631286	      4.18777745
      4.66000000	     38.38255241	      4.92011332	      1.20673293	     -0.13667763	      0.65158272	     -0.27219069	    -55.09298801	     -1.33450677	    -10.53297331	    -26.45007816	     13.12253358	     13.90268179	      0.00000000	    -14.73762981	      6.11754883	     -2.75353376	    -14.86336973	      4.88599167	      8.37329128	      0.00000000	    -66.18462604	     -3.55704125	      4.20567976
      4.66500000	     38.52013698	      4.96666553	      1.02574111	     -0.13000517	      0.65180558	     -0.27266829	    -54.64746835	     -1.82479499	    -10.90506889	    -28.40373553	     11.15347133	     13.94529284	      0.00000000	    -14.78708691	      6.34690338	     -2.31632934	    -16.28189936	      4.93747081	      7.48482137	      0.00000000	    -66.19083703	     -3.72657065	      4.21282535
      4.67000000	     38.63383487	      5.00631047	      0.86883938	     -0.12332709	      0.65203376	     -0.27318699	    -54.12646824	     -2.31351284	    -11.29197537	    -30.37614735	      9.05428298	     13.91008968	      0.00000000	    -14.82741533	      6.57726040	     -1.84963361	    -17.69422846	      5.12048898	      6.57886653	      0.00000000	    -66.16922604	     -3.87529131	      4.17818483
      4.67500000	     38.69908495	      5.04773461	      0.76893916	     -0.11665884	      0.65225383	     -0.27380626	    -53.48786111	     -2.79029081	    -11.71900958	    -32.40439576	      6.85361290	     13.79440247	      0.00000000	    -14.87253711	      6.80703748	     -1.37168389	    -19.00550221	      5.46251152	      5.74075833	      0.00000000	    -66.09753370	     -3.95093650	      4.08435910
      4.68000000	     38.84491961	      5.10560580	      0.60912425	     -0.11002381	      0.65258406	     -0.27434809	    -52.89884093	     -3.33931171	    -12.16127904	    -34.40293049	      4.54120559	     13.57542123	      0.00000000	    -15.07396052	      7.05539595	     -1.04220930	    -20.19332397	      5.78859923	      5.01620360	      0.00000000	    -66.10612849	     -4.08521785	      4.04887940
      4.68500000	     38.90161757	      5.13082087	      0.53069425	     -0.10343558	      0.65286360	     -0.27501826	    -52.15342789	     -3.82804287	    -12.59409512	    -36.43116457	      2.24294833	     13.27036504	      0.00000000	    -15.21193821	      7.26149252	     -0.68134157	    -21.32322041	      6.33298643	      4.33067023	      0.00000000	    -66.03149910	     -4.11546255	      3.94292206
      4.69000000	     39.06015249	      5.21326442	      0.36801474	     -0.09683745	      0.65326524	     -0.27557898	    -51.50397551	     -4.42339455	    -13.01521810	    -38.40090897	     -0.05049019	     12.90559498	      0.00000000	    -15.56422326	      7.52988609	     -0.44749763	    -22.25834901	      6.82786611	      3.78722504	      0.00000000	    -66.05093916	     -4.25901613	      3.85934475
      4.69500000	     39.17275983	      5.25029483	      0.24783097	     -0.09031020	      0.65365016	     -0.27617664	    -50.75668572	     -4.94961168	    -13.35199671	    -40.35794198	     -2.20773156	     12.43013991	      0.00000000	    -15.89825665	      7.74218529	     -0.18540693	    -23.13991307	      7.50951306	      3.30262805	      0.00000000	    -66.02808995	     -4.32652545	      3.74495834
      4.70000000	     39.28277123	      5.30560383	      0.13583336	     -0.08383376	      0.65408275	     -0.27677923	    -49.98946926	     -5.49590784	    -13.71656519	    -42.26949835	     -4.19868363	     11.96015155	      0.00000000	    -16.29166098	      7.95081268	     -0.04096921	    -23.89493343	      8.19748844	      2.95517653	      0.00000000	    -66.01228307	     -4.39546026	      3.60496440
      4.70500000	     39.38350667	      5.34815643	      0.03685302	     -0.07742033	      0.65455350	     -0.27736677	    -49.18802172	     -6.00954662	    -14.02159795	    -44.13629412	     -5.93967064	     11.44551095	      0.00000000	    -16.72822291	      8.12793539	      0.06783352	    -24.54477649	      8.93891095	      2.71787551	      0.00000000	    -65.99155187	     -4.43317157	      3.44898637
      4.71000000	     39.44068179	      5.35513291	     -0.04711344	     -0.07109551	      0.65503273	     -0.27794375	    -48.29945159	     -6.46148333	    -14.21198711	    -45.97893492	     -7.35069582	     10.90557419	      0.00000000	    -17.15475714	      8.25233362	      0.15785050	    -25.11385236	      9.77391440	      2.63014315	      0.00000000	    -65.93646540	     -4.43864022	      3.30699708
      4.71500000	     39.52848078	      5.38913114	     -0.12000493	     -0.06482782	      0.65559353	     -0.27847615	    -47.45329130	     -6.91902794	    -14.44274506	    -47.74397480	     -8.43243069	     10.45684011	      0.00000000	    -17.67885972	      8.37023816	      0.13983924	    -25.54657272	     10.54868432	      2.62437876	      0.00000000	    -65.92842557	     -4.45625784	      3.10351846
      4.72000000	     39.59600711	      5.39196888	     -0.17806380	     -0.05865481	      0.65619401	     -0.27897417	    -46.55767951	     -7.30575258	    -14.57471403	    -49.46548266	     -9.12885522	      9.99493913	      0.00000000	    -18.21983046	      8.43173076	      0.08874173	    -25.89075012	     11.36234733	      2.75984578	      0.00000000	    -65.91184749	     -4.43810788	      2.90400424
      4.72500000	     39.70323569	      5.39681063	     -0.21624729	     -0.05247429	      0.65685986	     -0.27950496	    -45.73207879	     -7.65389929	    -14.68351755	    -51.08565121	     -9.38935759	      9.65720035	      0.00000000	    -18.86755827	      8.48668340	      0.07611145	    -26.12042529	     12.18455766	      2.91564812	      0.00000000	    -65.91526661	     -4.37960965	      2.64096285
      4.73000000	     39.71862437	      5.35709585	     -0.22408128	     -0.04655615	      0.65755262	     -0.27986618	    -44.73005593	     -7.90816327	    -14.73363180	    -52.72179563	     -9.31873002	      9.23914846	      0.00000000	    -19.40325998	      8.42553689	     -0.10808573	    -26.31618440	     12.94532715	      3.33519664	      0.00000000	    -65.90655261	     -4.33252418	      2.50497746
